<svg xmlns="http://www.w3.org/2000/svg" xmlns:xlink="http://www.w3.org/1999/xlink" style="display:none">
<!-- Logo -->
<symbol id="logo-icon" viewBox="0 0 24 24" stroke="currentColor" stroke-width="2" stroke-linecap="round" stroke-linejoin="round" class="lucide lucide-lightbulb-icon lucide-lightbulb">
  <path fill="currentColor"
    d="M15 14c.2-1 .7-1.7 1.5-2.5 1-.9 1.5-2.2 1.5-3.5A6 6 0 0 0 6 8c0 1 .2 2.2 1.5 3.5.7.7 1.3 1.5 1.5 2.5"
  ></path><path d="M9 18h6"></path><path d="M10 22h4"></path>
</symbol>

<!-- Burger Menu -->
<symbol id="burger-icon" viewBox="0 0 24 24" stroke="currentColor" stroke-width="2" stroke-linecap="round" stroke-linejoin="round" class="lucide lucide-menu-icon lucide-menu">
  <path d="M4 12h16" fill="currentColor" ></path>
  <path d="M4 18h16"></path>
  <path d="M4 6h16"></path>
</symbol>

<!-- Eye icon -->
<symbol id="eye-icon" viewBox="0 0 24 24" fill="none" stroke="currentColor" stroke-width="2" stroke-linecap="round" stroke-linejoin="round" class="lucide lucide-eye-icon lucide-eye">
  <path d="M2.062 12.348a1 1 0 0 1 0-.696 10.75 10.75 0 0 1 19.876 0 1 1 0 0 1 0 .696 10.75 10.75 0 0 1-19.876 0"></path>
  <circle cx="12" cy="12" r="3"></circle>
</symbol>

<!-- Heart icon -->
<symbol id="heart-icon" viewBox="0 0 24 24" fill="none" stroke="currentColor" stroke-width="2" stroke-linecap="round" stroke-linejoin="round" class="lucide lucide-heart-icon lucide-heart">
  <path d="M19 14c1.49-1.46 3-3.21 3-5.5A5.5 5.5 0 0 0 16.5 3c-1.76 0-3 .5-4.5 2-1.5-1.5-2.74-2-4.5-2A5.5 5.5 0 0 0 2 8.5c0 2.3 1.5 4.05 3 5.5l7 7Z"></path>

<!-- Followers icon -->
<symbol id="followers-icon" viewBox="0 0 24 24" fill="none" stroke="currentColor" stroke-width="2" stroke-linecap="round" stroke-linejoin="round" class="lucide lucide-followers-icon lucide-followers">
  <path d="M18 21a8 8 0 0 0-16 0"/><circle cx="10" cy="8" r="5"/><path d="M22 20c0-3.37-2-6.5-4-8a5 5 0 0 0-.45-8.3"/>
</symbol>

<!-- Award icon -->
<symbol id="award-icon" viewBox="0 0 24 24" fill="none" stroke="currentColor" stroke-width="2" stroke-linecap="round" stroke-linejoin="round" class="lucide lucide-award-icon lucide-award">
  <path d="m15.477 12.89 1.515 8.526a.5.5 0 0 1-.81.47l-3.58-2.687a1 1 0 0 0-1.197 0l-3.586 2.686a.5.5 0 0 1-.81-.469l1.514-8.526"/>
  <circle cx="12" cy="8" r="6"/>
</symbol>

<!-- shadow icon -->
<symbol id="shadow-icon" viewBox="0 0 24 24" fill="none" stroke="currentColor" stroke-width="2" stroke-linecap="round" stroke-linejoin="round" class="lucide lucide-blend-icon lucide-blend"><circle cx="9" cy="9" r="7"/><circle cx="15" cy="15" r="7"/>
</symbol>

<!-- image icon -->
<symbol id="image-icon" viewBox="0 0 24 24" fill="none" stroke="currentColor" stroke-width="2" stroke-linecap="round" stroke-linejoin="round" class="lucide lucide-image-icon lucide-image">
  <rect width="18" height="18" x="3" y="3" rx="2" ry="2"/><circle cx="9" cy="9" r="2"/><path d="m21 15-3.086-3.086a2 2 0 0 0-2.828 0L6 21"/>
</symbol>

<!-- message icon -->
<symbol id="message-icon" viewBox="0 0 24 24" fill="none" stroke="currentColor" stroke-width="2" stroke-linecap="round" stroke-linejoin="round" class="lucide lucide-message-circle-icon lucide-message-circle">
  <path d="M7.9 20A9 9 0 1 0 4 16.1L2 22Z"/>
</symbol>

<!-- calendar icon -->
<symbol id="calendar-icon" viewBox="0 0 24 24" fill="none" stroke="currentColor" stroke-width="2" stroke-linecap="round" stroke-linejoin="round" class="lucide lucide-calendar-icon lucide-calendar">
  <path d="M8 2v4"/><path d="M16 2v4"/><rect width="18" height="18" x="3" y="4" rx="2"/><path d="M3 10h18"/>
</symbol>

<!-- clock icon -->
<symbol id="clock-icon" viewBox="0 0 24 24" fill="none" stroke="currentColor" stroke-width="2" stroke-linecap="round" stroke-linejoin="round" class="lucide lucide-clock-icon lucide-clock">
  <circle cx="12" cy="12" r="10"/><path d="M12 6v6l4 2"/>
</symbol>

<!-- location icon -->
<symbol id="location-icon" viewBox="0 0 24 24" fill="none" stroke="currentColor" stroke-width="2" stroke-linecap="round" stroke-linejoin="round" class="lucide lucide-location-icon lucide-location">
  <path d="M20 10c0 4.993-5.539 10.193-7.399 11.799a1 1 0 0 1-1.202 0C9.539 20.193 4 14.993 4 10a8 8 0 0 1 16 0"/><circle cx="12" cy="10" r="3"/>
</symbol>

</svg>